<svg height="512pt" viewBox="0 -43 512 512" width="512pt" xmlns="http://www.w3.org/2000/svg"><path d="m221.574219 397.777344c3.660156 16.066406 17.949219 27.460937 34.425781 27.460937s30.765625-11.394531 34.425781-27.460937l-34.425781-60.914063zm0 0" fill="#f0c419"/><path d="m443.496094 310.46875c15.363281.179688 30.015625 2.5625 39.019531-12.886719 5.003906-8.917969 8.242187-18.71875 9.535156-28.867187 1.144531-8.648438.351563-17.742188.882813-26.480469.527344-9.003906 1.5-18.007813 2.824218-26.925781 2.472657-16.507813 6.796876-32.398438 10.238282-48.640625 3.453125-13.640625 5.464844-27.605469 6.003906-41.664063 0-35.3125-17.65625-61.792968-52.964844-61.792968-35.3125 0-61.792968-52.964844-88.277344-61.792969-26.480468-8.828125-35.308593 26.480469-35.308593 26.480469h-158.898438s-8.828125-35.308594-35.308593-26.480469c-26.484376 8.828125-52.964844 61.792969-88.277344 61.792969-35.308594 0-52.964844 26.480468-52.964844 61.792968.539062 14.058594 2.550781 28.023438 6.003906 41.664063 3.441406 16.242187 7.765625 32.132812 10.238282 48.640625 1.324218 8.917968 2.296874 17.921875 2.824218 26.925781.53125 8.738281-.261718 17.832031.882813 26.480469 1.292969 10.148437 4.53125 19.949218 9.535156 28.867187 9.003906 15.449219 23.65625 13.066407 39.019531 12.886719zm0 0" fill="#59474e"/><path d="m256 372.175781s8.828125 0 35.308594 26.480469c26.484375 26.484375 88.277344 8.828125 132.414062-35.308594 44.140625-44.136718 0-88.277344 8.828125-167.722656 8.828125-79.449219-35.308593-114.761719-79.449219-150.070312-44.136718-35.308594-35.308593-44.136719-61.792968-44.136719-14.128906-1.113281-27.71875 5.679687-35.308594 17.652343-7.589844-11.972656-21.179688-18.765624-35.308594-17.652343-26.484375 0-17.65625 8.828125-61.792968 44.136719-44.140626 35.308593-88.277344 70.621093-79.449219 150.070312 8.828125 79.445312-35.3125 123.585938 8.828125 167.722656 44.136718 44.136719 105.929687 61.792969 132.414062 35.308594 26.480469-26.480469 35.308594-26.480469 35.308594-26.480469zm0 0" fill="#cbb292"/><path d="m415.074219 371.382812v.085938c-20.128907 18.292969-44.535157 31.226562-70.976563 37.605469-5.476562 1.230469-11.070312 1.882812-16.683594 1.941406-13.226562 1.074219-26.308593-3.402344-36.105468-12.359375-26.480469-26.480469-35.308594-26.480469-35.308594-26.480469s-8.828125 0-35.308594 26.480469c-9.777344 8.933594-22.820312 13.40625-36.019531 12.359375-5.640625-.0625-11.261719-.714844-16.769531-1.941406-26.441406-6.378907-50.847656-19.3125-70.976563-37.605469v-.085938c-.96875-6.003906-5.738281-41.933593 26.660157-49.613281 35.3125-8.472656 26.484374-16.859375 26.484374-42.105469 0-25.25 8.828126-33.636718 35.308594-42.019531 21.804688-6.886719 13.683594-30.898437 44.667969-39.195312-5.179687 4.574219-8.507813 10.882812-9.355469 17.742187 0 10.859375 15.800782 14.742188 35.308594 14.742188s35.308594-3.882813 35.308594-14.742188c-.847656-6.859375-4.175782-13.167968-9.355469-17.742187 30.984375 8.296875 22.863281 32.308593 44.667969 39.195312 26.480468 8.382813 35.308594 16.859375 35.308594 42.019531 0 25.15625-8.828126 33.632813 26.484374 42.105469 32.398438 7.679688 27.628907 43.609375 26.660157 49.613281zm0 0" fill="#59474e"/><path d="m291.308594 216.21875c0-10.832031-15.808594-29.421875-35.308594-29.421875s-35.308594 18.589844-35.308594 29.421875 15.808594 14.714844 35.308594 14.714844 35.308594-3.875 35.308594-14.714844zm0 0" fill="#2c3e50"/><path d="m256 257.417969c-4.875 0-8.828125-3.953125-8.828125-8.828125v-17.65625c0-4.875 3.953125-8.828125 8.828125-8.828125s8.828125 3.953125 8.828125 8.828125v17.65625c0 4.875-3.953125 8.828125-8.828125 8.828125zm0 0" fill="#2c3e50"/><path d="m344.097656 409.074219c-5.476562 1.230469-11.070312 1.882812-16.683594 1.941406-.25-.40625-.429687-.855469-.527343-1.324219-.441407-1.765625-.972657-3.53125-1.414063-5.296875-1.410156-4.765625-2.824218-9.53125-4.324218-14.210937-2.207032-6.707032-4.414063-13.417969-6.886719-20.039063-3-8.210937-5.914063-15.625-9.003907-22.6875-3.230468-7.597656-6.855468-15.023437-10.859374-22.246093-3.503907-6.476563-7.550782-12.648438-12.09375-18.449219-3.347657-4.433594-7.441407-8.257813-12.09375-11.296875-1.894532-1.183594-3.988282-2.023438-6.179688-2.472656-2.507812-.410157-5.050781-.558594-7.589844-.441407l-2.382812.089844c-1.917969-.09375-3.839844-.003906-5.738282.261719-1.816406.324218-3.570312.917968-5.207031 1.765625-4.671875 2.730469-8.773437 6.324219-12.09375 10.59375-4.730469 5.675781-8.898437 11.796875-12.449219 18.273437-3.796874 6.621094-7.414062 13.949219-11.210937 22.421875-3.175781 7.238281-6.179687 14.832031-9.269531 23.21875-2.558594 6.796875-4.855469 13.679688-7.0625 20.566407-1.585938 4.855468-3.089844 9.710937-4.414063 14.652343-.527343 1.765625-1.058593 3.53125-1.5 5.386719-.105469.425781-.253906.839844-.441406 1.234375-5.640625-.0625-11.261719-.714844-16.769531-1.941406-.28125-1.28125-.25-2.613281.085937-3.882813.53125-1.855468 1.058594-3.796875 1.589844-5.738281 1.5-5.03125 3-10.0625 4.589844-15.09375 2.296875-7.152344 4.765625-14.214844 7.328125-21.277344 3.175781-8.738281 6.355468-16.683593 9.710937-24.1875 4.058594-9.089843 7.941407-16.949219 12.003907-24.097656 4.09375-7.410156 8.882812-14.417969 14.300781-20.921875 4.761719-6.042969 10.671875-11.085938 17.390625-14.832031 3.335937-1.710938 6.90625-2.933594 10.59375-3.617188 2.808594-.355469 5.640625-.503906 8.472656-.441406l2.03125-.089844c3.808594-.136719 7.625.101563 11.386719.707031 4.253906.859376 8.320312 2.472657 12.007812 4.765626 6.402344 4.125 12.046875 9.320312 16.683594 15.359374 5.171875 6.574219 9.777344 13.574219 13.769531 20.921876 4.253906 7.714843 8.113282 15.640624 11.566406 23.746093 3.265626 7.417969 6.355469 15.183594 9.445313 23.660157 2.558594 6.886718 4.855469 13.769531 7.0625 20.746093 1.585937 4.941407 3.085937 9.796875 4.5 14.738281.53125 1.945313 1.058594 3.796876 1.589844 5.738282.335937 1.242187.367187 2.542968.085937 3.796875zm0 0" fill="#2c2f38"/><path d="m291.308594 45.554688c-8.550782.199218-16.585938 4.128906-21.996094 10.753906-6.902344 10.519531-8.464844 23.671875-4.21875 35.519531 7.667969 30.683594 5.101562 42.46875 1.597656 46.953125-1.300781 1.660156-3.816406 3.867188-10.683594 3.867188-6.867187 0-9.382812-2.207032-10.679687-3.867188-3.53125-4.492188-6.074219-16.277344 1.597656-46.953125 4.246094-11.847656 2.683594-25-4.21875-35.519531-5.417969-6.628906-13.460937-10.558594-22.015625-10.753906-4.8125.003906-8.71875 3.886718-8.757812 8.695312-.042969 4.839844 3.796875 8.820312 8.632812 8.960938 3.199219.179687 6.1875 1.648437 8.289063 4.070312 3.15625 6.335938 3.476562 13.714844.882812 20.300781-7.867187 31.445313-7.363281 50.589844 1.613281 62.09375 6.027344 7.304688 15.199219 11.261719 24.648438 10.636719 9.4375.605469 18.589844-3.363281 24.601562-10.664062 8.980469-11.476563 9.480469-30.65625 1.617188-62.09375-2.597656-6.585938-2.273438-13.964844.882812-20.300782 2.109376-2.421875 5.113282-3.882812 8.324219-4.042968 4.875-.03125 8.800781-4.011719 8.769531-8.886719s-4.007812-8.800781-8.886718-8.769531zm0 0" fill="#7f6e5d"/><path d="m264.828125 204.453125c0-4.878906-5.929687-8.828125-13.242187-8.828125s-13.242188 3.949219-13.242188 8.828125c0 4.875 5.929688 8.824219 13.242188 8.824219s13.242187-3.949219 13.242187-8.824219zm0 0" fill="#35495e"/><path d="m194.207031 173.554688c.015625 11.039062-5.859375 21.246093-15.410156 26.777343-9.550781 5.535157-21.328125 5.550781-30.898437.046875-9.566407-5.507812-15.46875-15.699218-15.484376-26.734375v-.089843c-.03125-6.472657 2.007813-12.78125 5.824219-18.007813h.089844c9.546875-2.070313 18.429687-6.464844 25.863281-12.800781 6.558594.070312 12.898438 2.339844 18.011719 6.445312 7.570313 5.8125 12.007813 14.816406 12.003906 24.363282zm0 0" fill="#d1d4d1"/><path d="m183.90625 173.554688c0 11.375-9.222656 20.59375-20.597656 20.59375-11.371094 0-20.59375-9.21875-20.59375-20.59375s9.222656-20.59375 20.59375-20.59375c11.375 0 20.597656 9.21875 20.597656 20.59375zm0 0" fill="#e4c05c"/><path d="m173.613281 173.554688c0 5.691406-4.613281 10.300781-10.304687 10.300781-5.6875 0-10.300782-4.609375-10.300782-10.300781 0-5.691407 4.613282-10.300782 10.300782-10.300782 5.691406 0 10.304687 4.609375 10.304687 10.300782zm0 0" fill="#2c2f38"/><path d="m179.5 163.253906c0 5.6875-4.613281 10.300782-10.300781 10.300782-5.691407 0-10.300781-4.613282-10.300781-10.300782 0-5.691406 4.609374-10.304687 10.300781-10.304687 5.6875 0 10.300781 4.613281 10.300781 10.304687zm0 0" fill="#fff"/><path d="m379.585938 173.554688v.089843c0 14.472657-10.050782 27.003907-24.179688 30.152344-14.125 3.148437-28.542969-3.933594-34.691406-17.039063-6.144532-13.105468-2.367188-28.71875 9.082031-37.566406 5.09375-4.015625 11.351563-6.277344 17.832031-6.445312 7.472656 6.378906 16.429688 10.78125 26.042969 12.800781h.089844c3.816406 5.226563 5.855469 11.535156 5.824219 18.007813zm0 0" fill="#d1d4d1"/><path d="m369.285156 173.554688c0 11.375-9.222656 20.59375-20.59375 20.59375-11.375 0-20.597656-9.21875-20.597656-20.59375s9.222656-20.59375 20.597656-20.59375c11.371094 0 20.59375 9.21875 20.59375 20.59375zm0 0" fill="#e4c05c"/><path d="m358.992188 173.554688c0 5.691406-4.613282 10.300781-10.300782 10.300781-5.691406 0-10.304687-4.609375-10.304687-10.300781 0-5.691407 4.613281-10.300782 10.304687-10.300782 5.6875 0 10.300782 4.609375 10.300782 10.300782zm0 0" fill="#2c2f38"/><path d="m348.691406 163.253906c0 5.6875-4.613281 10.300782-10.304687 10.300782-5.6875 0-10.300781-4.613282-10.300781-10.300782 0-5.691406 4.613281-10.304687 10.300781-10.304687 5.691406 0 10.304687 4.613281 10.304687 10.304687zm0 0" fill="#fff"/><g fill="#7f6e5d"><path d="m194.207031 115.292969c-.082031 12.328125-4.308593 24.265625-12.003906 33.898437-11.878906 13.664063-28.382813 22.464844-46.347656 24.714844-.347657.074219-.703125.105469-1.058594.089844-.808594.019531-1.613281-.101563-2.382813-.351563v-.089843c-3.425781-.898438-5.949218-3.808594-6.355468-7.328126-.308594-2.320312.335937-4.667968 1.78125-6.511718 1.445312-1.84375 3.570312-3.027344 5.898437-3.285156.265625-.089844 1.941407-.265626 4.5-.882813h.089844c9.546875-2.070313 18.429687-6.464844 25.863281-12.800781 7.898438-7.082032 12.394532-17.199219 12.359375-27.804688-.050781-2.375.894531-4.660156 2.605469-6.304687 1.710938-1.640625 4.03125-2.496094 6.398438-2.347657 2.34375.046876 4.570312 1.019532 6.191406 2.710938 1.625 1.6875 2.507812 3.953125 2.460937 6.292969zm0 0"/><path d="m385.941406 166.226562c-.40625 3.519532-2.929687 6.429688-6.355468 7.328126v.089843c-.769532.25-1.574219.371094-2.382813.351563-.355469.015625-.710937-.015625-1.058594-.089844-17.964843-2.25-34.46875-11.050781-46.347656-24.714844-7.695313-9.632812-11.921875-21.570312-12.003906-33.898437-.046875-2.339844.835937-4.605469 2.460937-6.292969 1.621094-1.691406 3.847656-2.664062 6.191406-2.710938 2.351563-.089843 4.640626.78125 6.335938 2.414063 1.699219 1.628906 2.660156 3.882813 2.667969 6.238281-.050781 10.570313 4.375 20.675782 12.179687 27.804688 7.472656 6.378906 16.429688 10.78125 26.042969 12.800781h.089844c2.558593.527344 4.234375.792969 4.5.792969 2.332031.289062 4.453125 1.492187 5.894531 3.347656s2.085938 4.210938 1.785156 6.539062zm0 0"/></g></svg>